<?xml version="1.0" encoding="UTF-8"?>
<svg id="_图层_2" data-name="图层 2" xmlns="http://www.w3.org/2000/svg" xmlns:xlink="http://www.w3.org/1999/xlink" viewBox="0 0 283.5 219.1">
  <defs>
    <style>
      .cls-1 {
        fill: url(#B1G);
      }

      .cls-2 {
        fill: url(#B2G);
      }

      .cls-3 {
        fill: url(#_未命名的渐变_64);
      }

      .cls-4 {
        fill: url(#_未命名的渐变_81);
      }
    </style>
    <linearGradient id="B1G" x1="141.75" y1="219.1" x2="141.75" y2="175.3" gradientUnits="userSpaceOnUse">
      <stop offset="0" stop-color="#0a59bf"/>
      <stop offset="1" stop-color="#084da6"/>
    </linearGradient>
    <linearGradient id="B2G" x1="141.75" y1="175.3" x2="141.75" y2="131.5" gradientUnits="userSpaceOnUse">
      <stop offset="0" stop-color="#0b78d9"/>
      <stop offset="1" stop-color="#0a6abf"/>
    </linearGradient>
    <linearGradient id="_未命名的渐变_64" data-name="未命名的渐变 64" x1="141.75" y1="131.5" x2="141.75" y2="87.7" gradientUnits="userSpaceOnUse">
      <stop offset="0" stop-color="#0f9bf2"/>
      <stop offset="1" stop-color="#0d8bd9"/>
    </linearGradient>
    <linearGradient id="_未命名的渐变_81" data-name="未命名的渐变 81" x1="163.65" y1="87.7" x2="163.65" y2="0" gradientUnits="userSpaceOnUse">
      <stop offset="0" stop-color="#42aef2"/>
      <stop offset="1" stop-color="#3b9cd9"/>
    </linearGradient>
  </defs>
  <g id="_图层_1-2" data-name="图层 1">
    <g>
      <polygon class="cls-1" points="131.5 175.3 0 175.3 0 219.1 131.5 219.1 283.5 219.1 283.5 175.3 131.5 175.3"/>
      <polygon class="cls-2" points="131.5 131.5 0 131.5 0 175.3 131.5 175.3 283.5 175.3 283.5 131.5 131.5 131.5"/>
      <polygon class="cls-3" points="134.6 87.7 133 87.7 131.5 87.7 130.1 87.7 127.7 87.7 43.8 87.7 0 87.7 0 131.5 131.5 131.5 283.5 131.5 283.5 87.7 134.6 87.7"/>
      <polygon class="cls-4" points="207.42 44 131.5 44 129.95 43.9 129.5 43.9 127.9 43.8 126.3 43.6 126.21 43.59 125.3 43.5 124.8 43.4 124.75 43.39 123.2 43.2 121.7 42.8 120.7 42.55 119.2 42.2 118.6 42 117.1 41.5 116.2 41.2 115.6 41 114.1 40.4 113.3 40 112.7 39.7 111.3 39 110.5 38.6 107.8 37 107.4 36.72 107.2 36.6 105.9 35.7 105.7 35.55 105.2 35.2 104.6 34.7 103.4 33.7 102.8 33.2 102.2 32.7 101 31.6 100.5 31.1 99.9 30.5 99.3 29.85 98.3 28.8 97.44 27.66 96.8 26.9 95.8 25.6 94.9 24.3 94.6 23.8 94.1 23 93.4 21.78 93.3 21.6 93 21.1 92.9 20.9 92.5 20.2 91.8 18.8 91.6 18.3 90.8 16.37 90.6 15.9 90.4 15.4 90 14.4 89.5 12.9 89.1 11.3 88.7 9.8 88.68 9.72 88.6 9.4 88 6.3 87.85 4.7 87.7 3.5 87.6 1.9 87.6 .4 87.6 0 43.8 0 43.84 1.64 43.9 3.1 44 5.4 44.02 5.78 44.3 8.9 44.51 10.71 44.7 12.2 44.95 14.15 45.58 17.6 45.9 19 46.53 21.69 46.73 22.48 47.8 26.3 49.3 30.5 50.61 33.85 50.8 34.3 51.28 35.42 52.7 38.5 52.8 38.7 54.04 41.12 54.8 42.5 55.4 43.6 55.65 44 57.1 46.4 58.35 48.32 58.4 48.4 59.7 50.3 60.22 51.06 62.2 53.7 65 57.2 66.08 58.43 66.9 59.3 68.31 60.89 71.1 63.6 73.4 65.7 73.74 66 74.7 66.85 77.8 69.4 80.02 71 80.6 71.4 82.5 72.7 84.4 74 86.4 75.2 86.89 75.51 89 76.7 91.91 78.26 92.4 78.5 94.5 79.5 95.26 79.86 96.9 80.6 101.1 82.3 105.3 83.7 107.4 84.3 109.5 84.9 112.9 85.75 114 86 115.07 86.19 118.3 86.7 122 87.2 123.1 87.3 124.55 87.43 127.1 87.6 131.5 87.7 133 87.7 134.6 87.7 283.5 87.7 283.5 44 207.42 44"/>
    </g>
  </g>
</svg>